<svg xmlns="http://www.w3.org/2000/svg" height="32" viewBox="0 0 32 32" width="32"><path d="M26.69,18.53a1,1,0,0,0-1.4-.21L16,25.17v.29a1,1,0,0,1,0,1.91v.05a1,1,0,0,0,.59-.19l9.88-7.3A1,1,0,0,0,26.69,18.53Z" style="fill:#669df6"/><path d="M16,27.37a1,1,0,0,1,0-1.91h0v-.29L6.72,18.32a1,1,0,1,0-1.19,1.61l9.88,7.3a1,1,0,0,0,.6.19v-.05Z" style="fill:#aecbfa"/><path d="M16,24.46a2,2,0,1,0,2,2A2,2,0,0,0,16,24.46Zm0,2.91a1,1,0,0,1,0-1.91,1,1,0,1,1,0,1.91Z" style="fill:#4285f4"/><path d="M8,8.15a1,1,0,0,1-1-1V4.63a1,1,0,0,1,2,0V7.14A1,1,0,0,1,8,8.15Z" style="fill:#aecbfa"/><circle cx="7.97" cy="16.01" r="1.01" style="fill:#aecbfa"/><circle cx="7.97" cy="13.05" r="1.01" style="fill:#aecbfa"/><circle cx="7.97" cy="10.1" r="1.01" style="fill:#aecbfa"/><path d="M24,11.07a1,1,0,0,1-1-1V7.56a1,1,0,0,1,2,0v2.51A1,1,0,0,1,24,11.07Z" style="fill:#4285f4"/><circle cx="24.03" cy="16.02" r="1.01" style="fill:#4285f4"/><circle cx="24.03" cy="13.02" r="1.01" style="fill:#4285f4"/><circle cx="24.03" cy="4.64" r="1.01" style="fill:#4285f4"/><path d="M16,20a1,1,0,0,1-1-1V16.46a1,1,0,0,1,2,0V19A1,1,0,0,1,16,20Z" style="fill:#669df6"/><circle cx="16" cy="21.93" r="1.01" style="fill:#669df6"/><circle cx="16" cy="13.52" r="1.01" style="fill:#669df6"/><circle cx="16" cy="10.56" r="1.01" style="fill:#669df6"/><path d="M20,14.06a1,1,0,0,1-1-1V10.54a1,1,0,0,1,2,0v2.51A1,1,0,0,1,20,14.06Z" style="fill:#4285f4"/><circle cx="20.02" cy="7.59" r="1.01" style="fill:#4285f4"/><circle cx="20.02" cy="18.92" r="1.01" style="fill:#4285f4"/><circle cx="20.02" cy="15.97" r="1.01" style="fill:#4285f4"/><circle cx="11.99" cy="18.92" r="1.01" style="fill:#aecbfa"/><circle cx="11.99" cy="10.56" r="1.01" style="fill:#aecbfa"/><circle cx="11.99" cy="7.59" r="1.01" style="fill:#aecbfa"/><path d="M12,17a1,1,0,0,1-1-1V13.46a1,1,0,0,1,2,0V16A1,1,0,0,1,12,17Z" style="fill:#aecbfa"/></svg>