<svg width="80" height="64" viewBox="0 0 80 64" fill="none" xmlns="http://www.w3.org/2000/svg">
  <path d="M50.3697 17.5896L52.903 17.6369L59.7889 10.7499L60.1244 7.83335C54.6535 2.96386 47.4536 0 39.5699 0C25.2949 0 13.2564 9.70889 9.68652 22.872C10.4392 22.3515 12.0435 22.7387 12.0435 22.7387L25.8067 20.476C25.8067 20.476 26.5207 19.3059 26.869 19.3791C30.0174 15.9334 34.5463 13.7654 39.5699 13.7654C43.6559 13.7654 47.4149 15.2021 50.3697 17.5896Z" fill="#EA4335"/>
  <path d="M69.462 22.8883C67.8663 16.9864 64.5631 11.7814 60.1202 7.82812L50.3655 17.5843C54.2708 20.7417 56.774 25.5682 56.774 30.9711V32.6918C61.518 32.6918 65.376 36.5504 65.376 41.2951C65.376 46.0399 61.518 49.8985 56.774 49.8985H39.57L37.8496 51.6278V61.9518L39.57 63.6638H56.774C69.105 63.6638 79.1393 53.628 79.1393 41.2951C79.1393 33.6683 75.3028 26.9276 69.462 22.8883Z" fill="#4285F4"/>
  <path d="M22.3653 63.6647H39.5564V49.8993H22.3653C21.1008 49.8993 19.9051 49.6197 18.8213 49.125L16.3439 49.8864L9.4537 56.7777L8.85156 59.1049C12.6063 61.9612 17.2901 63.6647 22.3653 63.6647Z" fill="#34A853"/>
  <path d="M22.3652 18.9258C10.0342 18.9258 0 28.9616 0 41.2945C0 48.5557 3.47951 55.0212 8.86007 59.1078L18.8341 49.1322C15.8492 47.7814 13.7632 44.7789 13.7632 41.2945C13.7632 36.5498 17.6212 32.6912 22.3652 32.6912C25.849 32.6912 28.8511 34.7775 30.2017 37.7628L40.1757 27.7872C36.0897 22.4058 29.6253 18.9258 22.3652 18.9258Z" fill="#FBBC04"/>
</svg>
